# xmcd CD database file
#
# Track frame offsets:
#	151
#	5988
#	39047
#	64772
#	103621
#	118152
#	157011
#	179328
#	208107
#	237872
#	267189
#
# Disc length: 3818 seconds
#
# Revision: 0
# Processed by: cddbd v1.4PL0 Copyright (c) Steve Scherf et al.
# Submitted via: CDex 1.50Beta5
#
DISCID=960ee80b
DTITLE=Raviraj Nasery - Prem Swarup Lara
DYEAR=2000
DGENRE=New Age
TTITLE0=Introduction
TTITLE1=Maha Vallabha Shri Ganaraya
TTITLE2=Vigneshwara Gananatha Gajanana
TTITLE3=Sai Prashanti Mandir Tera
TTITLE4=Saakshatha Param Sai
TTITLE5=Sagar Se Gahera Hey Pyar
TTITLE6=Krishna Madhav Madava Krishna
TTITLE7=Dharma Kshetra Ke Ishwar Sai
TTITLE8=Shree Raghu Nandan Dasharta Nandan
TTITLE9=Jhulana Me Jhule Mere Sai Nandlal
TTITLE10=Mere Paas Me Aaker Darshana Do
EXTD=YEAR: 2000
EXTT0=
EXTT1=
EXTT2=
EXTT3=
EXTT4=
EXTT5=
EXTT6=
EXTT7=
EXTT8=
EXTT9=
EXTT10=
PLAYORDER=
